<?xml version="1.0" encoding="utf-8"?>
<!-- Generator: Adobe Illustrator 26.0.3, SVG Export Plug-In . SVG Version: 6.00 Build 0)  -->
<svg version="1.1" id="Слой_1" xmlns="http://www.w3.org/2000/svg" xmlns:xlink="http://www.w3.org/1999/xlink" x="0px" y="0px"
	 viewBox="0 0 102.64 102.64" style="enable-background:new 0 0 102.64 102.64;" xml:space="preserve">
<style type="text/css">
	.st0{fill:#FFFFFF;}
	.st1{fill:#EE0000;}
</style>
<circle cx="51.32" cy="51.32" r="47.23"/>
<g>
	<path class="st0" d="M81.29,68.16c-1.46,2.16-3.54,4.92-5.7,6.6c-0.15,0.11-0.3,0.23-0.3,0.23c-0.81,0.61-2.57,1.86-5.11,3.06
		c-2.16,1.02-4.7,1.89-7.62,2.59c-2.91,0.7-6.22,1.05-9.91,1.05c-5.83,0-10.85-0.92-15.06-2.76c-4.21-1.84-7.68-4.27-10.39-7.28
		c-2.71-3.01-4.72-6.46-6.02-10.35c-1.3-3.89-1.95-7.88-1.95-11.97c0-4.74,0.81-9.02,2.42-12.85c1.62-3.83,3.89-7.1,6.84-9.82
		c2.94-2.72,6.48-4.81,10.6-6.27c4.12-1.46,8.7-2.19,13.72-2.19c3.46,0,6.55,0.35,9.26,1.05c2.71,0.7,5.08,1.67,7.1,2.89
		c2.02,1.23,3.71,2.69,5.06,4.39c1.35,1.7,2.47,3.54,3.33,5.53h-6.4c-0.4-1.23-1.11-2.44-2.12-3.64c-1.01-1.2-2.31-2.27-3.89-3.2
		c-1.59-0.93-3.41-1.7-5.45-2.28c-2.05-0.58-4.31-0.88-6.79-0.88c-3.63,0-7,0.67-10.08,2.02c-3.09,1.35-5.76,3.22-8.01,5.61
		c-2.25,2.4-4,5.25-5.24,8.55c-1.24,3.3-1.86,6.94-1.86,10.92c0,3.74,0.59,7.34,1.77,10.79c1.18,3.45,2.93,6.49,5.24,9.12
		c2.31,2.63,5.19,4.74,8.65,6.32c3.46,1.58,7.44,2.37,11.94,2.37c1.38,0,4.39-0.02,7.85-0.97c7.21-1.98,11.2-6.58,12.67-8.5
		C77.67,68.24,79.48,68.2,81.29,68.16z"/>
</g>
<g>
	<path class="st0" d="M59.45,59.97l0.17,0c4.16-8.25,8.31-16.51,12.47-24.76c1.95,0,3.91-0.01,5.86-0.01
		c1.14,10.32,2.28,20.63,3.42,30.95c-1.67-0.03-3.35-0.07-5.02-0.1c-0.59-8.9-1.19-17.81-1.78-26.71c-0.25,0-0.5-0.01-0.76-0.01
		c-5.01,8.39-10.02,16.79-15.03,25.18l-0.76-0.01l-12.6-24.04l-0.17,0c0.13,8.32,0.25,16.63,0.38,24.95c-1.43,0-2.86,0-4.29,0
		c0.69-10.23,1.38-20.47,2.08-30.7c1.06-0.03,2.13-0.06,3.19-0.09C50.89,43.06,55.17,51.52,59.45,59.97z"/>
	<path class="st0" d="M79.41,68.07"/>
</g>
<path class="st1" d="M71.31,68.77"/>
<path class="st1" d="M73.54,72.09"/>
<path class="st0" d="M88.72,60.77"/>
</svg>
